ffmpeg version 3.4.8-0ubuntu0.2 Copyright (c) 2000-2020 the FFmpeg developers
  built with gcc 7 (Ubuntu 7.5.0-3ubuntu1~18.04)
  configuration: --prefix=/usr --extra-version=0ubuntu0.2 --toolchain=hardened --libdir=/usr/lib/x86_64-linux-gnu --incdir=/usr/include/x86_64-linux-gnu --enable-gpl --disable-stripping --enable-avresample --enable-avisynth --enable-gnutls --enable-ladspa --enable-libass --enable-libbluray --enable-libbs2b --enable-libcaca --enable-libcdio --enable-libflite --enable-libfontconfig --enable-libfreetype --enable-libfribidi --enable-libgme --enable-libgsm --enable-libmp3lame --enable-libmysofa --enable-libopenjpeg --enable-libopenmpt --enable-libopus --enable-libpulse --enable-librubberband --enable-librsvg --enable-libshine --enable-libsnappy --enable-libsoxr --enable-libspeex --enable-libssh --enable-libtheora --enable-libtwolame --enable-libvorbis --enable-libvpx --enable-libwavpack --enable-libwebp --enable-libx265 --enable-libxml2 --enable-libxvid --enable-libzmq --enable-libzvbi --enable-omx --enable-openal --enable-opengl --enable-sdl2 --enable-libdc1394 --enable-libdrm --enable-libiec61883 --enable-chromaprint --enable-frei0r --enable-libopencv --enable-libx264 --enable-shared
  libavutil      55. 78.100 / 55. 78.100
  libavcodec     57.107.100 / 57.107.100
  libavformat    57. 83.100 / 57. 83.100
  libavdevice    57. 10.100 / 57. 10.100
  libavfilter     6.107.100 /  6.107.100
  libavresample   3.  7.  0 /  3.  7.  0
  libswscale      4.  8.100 /  4.  8.100
  libswresample   2.  9.100 /  2.  9.100
  libpostproc    54.  7.100 / 54.  7.100
[rawvideo @ 0x55ce960a1a20] Estimating duration from bitrate, this may be inaccurate
Input #0, rawvideo, from '../../SVC-Encoder-20220109T061506Z-001/SVC-Encoder/Dataset/RollerCoaster/ERP_8x8/tile_yuv/Tile_42_480x240.yuv':
  Duration: 00:00:10.00, start: 0.000000, bitrate: 41472 kb/s
    Stream #0:0: Video: rawvideo (I420 / 0x30323449), yuv420p, 480x240, 41472 kb/s, 30 tbr, 30 tbn, 30 tbc
Stream mapping:
  Stream #0:0 -> #0:0 (rawvideo (native) -> h264 (libx264))
Press [q] to stop, [?] for help
[libx264 @ 0x55ce960aec60] using cpu capabilities: MMX2 SSE2Fast LZCNT SSSE3 SSE4.2 AVX
[libx264 @ 0x55ce960aec60] profile High, level 2.1
Output #0, rawvideo, to 'RollerCoaster_Tile_42_480x240_x264_QP_24.h264':
  Metadata:
    encoder         : Lavf57.83.100
    Stream #0:0: Video: h264 (libx264), yuv420p, 480x240, q=-1--1, 30 fps, 30 tbn, 30 tbc
    Metadata:
      encoder         : Lavc57.107.100 libx264
    Side data:
      cpb: bitrate max/min/avg: 0/0/0 buffer size: 0 vbv_delay: -1
frame=  124 fps=0.0 q=30.0 PSNR=Y:nan U:nan V:nan *:nan size=     135kB time=00:00:02.70 bitrate= 410.2kbits/s speed=5.39x    frame=  239 fps=238 q=30.0 PSNR=Y:nan U:nan V:nan *:nan size=     256kB time=00:00:06.53 bitrate= 321.0kbits/s speed= 6.5x    frame=  300 fps=209 q=30.0 LPSNR=Y:inf U:inf V:inf *:inf size=     460kB time=00:00:09.93 bitrate= 379.4kbits/s speed=6.92x    
video:460kB audio:0kB subtitle:0kB other streams:0kB global headers:0kB muxing overhead: 0.000000%
[libx264 @ 0x55ce960aec60] frame I:2     Avg QP:21.90  size: 19361  PSNR Mean Y:44.13 U:49.15 V:50.77 Avg:45.35 Global:45.23
[libx264 @ 0x55ce960aec60] frame P:76    Avg QP:23.79  size:  4540  PSNR Mean Y:40.30 U:48.08 V:49.67 Avg:41.77 Global:41.69
[libx264 @ 0x55ce960aec60] frame B:222   Avg QP:29.43  size:   393  PSNR Mean Y:39.99 U:47.89 V:49.48 Avg:41.46 Global:41.41
[libx264 @ 0x55ce960aec60] consecutive B-frames:  1.0%  0.7%  1.0% 97.3%
[libx264 @ 0x55ce960aec60] mb I  I16..4:  0.1% 73.8% 26.1%
[libx264 @ 0x55ce960aec60] mb P  I16..4:  0.0%  0.0%  0.0%  P16..4: 37.3% 33.7% 23.4%  0.0%  0.0%    skip: 5.6%
[libx264 @ 0x55ce960aec60] mb B  I16..4:  0.0%  0.0%  0.0%  B16..8: 52.0%  4.4%  0.2%  direct: 0.2%  skip:43.2%  L0:35.7% L1:55.8% BI: 8.5%
[libx264 @ 0x55ce960aec60] 8x8 transform intra:74.0% inter:60.2%
[libx264 @ 0x55ce960aec60] coded y,uvDC,uvAC intra: 99.4% 95.9% 57.2% inter: 16.2% 8.9% 0.0%
[libx264 @ 0x55ce960aec60] i16 v,h,dc,p:  0%  0%  0% 100%
[libx264 @ 0x55ce960aec60] i8 v,h,dc,ddl,ddr,vr,hd,vl,hu:  5% 11%  9% 15%  7%  4%  9% 29% 11%
[libx264 @ 0x55ce960aec60] i4 v,h,dc,ddl,ddr,vr,hd,vl,hu:  7% 12%  7% 18%  6%  3%  8% 31%  8%
[libx264 @ 0x55ce960aec60] i8c dc,h,v,p: 41% 21% 14% 23%
[libx264 @ 0x55ce960aec60] Weighted P-Frames: Y:0.0% UV:0.0%
[libx264 @ 0x55ce960aec60] ref P L0: 64.8% 22.5% 11.8%  0.9%
[libx264 @ 0x55ce960aec60] ref B L0: 95.9%  3.8%  0.3%
[libx264 @ 0x55ce960aec60] ref B L1: 97.4%  2.6%
[libx264 @ 0x55ce960aec60] PSNR Mean Y:40.097 U:47.947 V:49.534 Avg:41.564 Global:41.492 kb/s:376.86
